<svg width="1280" height="720" xmlns="http://www.w3.org/2000/svg" xmlns:xlink="http://www.w3.org/1999/xlink" overflow="hidden"><g><rect x="0" y="0" width="1280" height="720" fill="#FFFFFF" fill-opacity="0"/><path d="M641.833 74.5002 641.833 647.815 638.167 647.815 638.167 74.5002ZM630.833 76.3333 640 58 649.167 76.3333ZM649.167 645.982 640 664.316 630.833 645.982Z"/><path d="M359.5 358.167 926.079 358.167 926.079 361.833 359.5 361.833ZM361.333 369.167 343 360 361.333 350.833ZM924.246 350.833 942.579 360 924.246 369.167Z"/><path d="M439.038 157.125 839.669 557.756 837.077 560.349 436.445 159.717ZM432.556 166.199 426.074 146.754 445.519 153.235ZM843.559 551.275 850.04 570.72 830.595 564.238Z"/><path d="M841.612 162.244 440.98 562.875 438.387 560.283 839.019 159.651ZM832.537 155.762 851.983 149.28 845.501 168.726ZM447.462 566.765 428.016 573.246 434.498 553.801Z"/><path d="M378.025 252.178 903.348 464.422 901.974 467.822 376.652 255.578ZM375.604 263.064 362.04 247.697 382.472 246.065ZM904.395 456.936 917.959 472.303 897.527 473.934Z"/><path d="M530.997 99.7779 752.377 621.316 749.002 622.749 527.622 101.211ZM521.588 105.763 522.863 85.3057 538.464 98.5999ZM758.411 616.763 757.137 637.221 741.535 623.927Z"/><path d="M376.652 464.422 901.974 252.178 903.348 255.578 378.025 467.822ZM382.472 473.935 362.04 472.303 375.604 456.936ZM897.527 246.066 917.96 247.697 904.395 263.064Z"/><path d="M527.622 621.316 749.002 99.7781 752.377 101.211 530.997 622.749ZM538.464 623.927 522.862 637.221 521.588 616.764ZM741.535 98.6001 757.137 85.3059 758.411 105.763Z"/></g></svg>